<svg xmlns="http://www.w3.org/2000/svg" width="500" height="500" viewBox="0 0 500 500">
<g>
<path d="M 250.00 250.00 C250.00,383.61 249.66,492.89 249.25,492.89 C248.84,492.83 242.88,490.56 236.00,487.84 C222.29,482.42 202.81,474.97 158.27,458.14 C142.19,452.06 128.13,446.60 127.02,446.01 C125.00,444.93 125.00,444.49 125.00,254.59 C125.00,103.48 125.26,64.05 126.25,63.30 C126.94,62.78 130.65,60.96 134.50,59.24 C138.35,57.53 150.27,52.12 161.00,47.21 C171.73,42.30 195.89,31.25 214.70,22.65 C233.50,14.04 249.14,7.00 249.45,7.00 C249.75,7.00 250.00,116.35 250.00,250.00 ZM 81.00 267.00 C81.00,357.19 80.66,430.96 80.25,430.96 C79.84,430.93 69.82,426.84 58.00,421.85 C46.17,416.87 31.81,410.87 26.07,408.52 C18.69,405.50 15.41,403.62 14.85,402.13 C14.02,399.88 13.79,141.69 14.62,138.80 C14.89,137.86 20.82,134.08 27.80,130.40 C34.79,126.72 42.75,122.49 45.50,121.00 C57.97,114.26 79.78,103.00 80.36,103.00 C80.71,103.00 81.00,176.80 81.00,267.00 ZM 420.01 266.52 C420.02,356.09 419.68,429.71 419.26,430.12 C418.56,430.81 383.87,416.11 377.96,412.63 L 375.41 411.13 L 375.14 268.68 L 374.86 126.23 L 384.68 120.99 C410.66,107.14 419.15,102.82 419.55,103.22 C419.79,103.46 420.00,176.94 420.01,266.52 Z" fill="rgb(48,94,118)" data-index="0" style="opacity: 1;"></path>
<path d="M 250.00 250.00 C250.00,116.35 249.75,7.00 249.45,7.00 C249.14,7.00 233.50,14.04 214.70,22.65 C206.60,26.35 197.50,30.51 188.92,34.44 C227.40,16.83 241.73,10.24 245.26,8.55 L 250.02 6.28 L 257.26 9.50 C285.56,22.09 361.15,56.74 369.00,60.72 L 374.50 63.50 L 374.76 94.25 C374.96,116.64 375.34,125.00 376.18,125.00 C376.64,125.00 379.27,123.80 382.67,122.06 L 374.86 126.23 L 375.14 268.68 L 375.41 411.13 L 377.96 412.63 C379.77,413.70 384.28,415.82 389.70,418.23 C382.52,415.16 377.09,413.00 376.48,413.00 C375.23,413.00 375.00,415.60 375.00,429.37 L 375.00 445.74 L 362.25 450.51 C355.24,453.13 343.88,457.45 337.00,460.10 C326.51,464.16 289.75,478.24 271.50,485.20 C268.75,486.25 262.93,488.43 258.56,490.05 C254.19,491.67 250.14,492.95 249.56,492.89 C249.51,492.89 249.41,492.86 249.27,492.82 C249.67,489.70 250.00,381.67 250.00,250.00 ZM 420.01 266.52 C420.00,176.94 419.79,103.46 419.55,103.22 C419.21,102.87 412.94,105.99 394.85,115.59 C399.35,113.18 404.33,110.53 408.17,108.49 L 419.85 102.31 L 430.67 107.96 C436.63,111.07 449.38,117.81 459.00,122.94 C468.62,128.07 478.30,133.21 480.50,134.38 C482.70,135.55 484.83,136.95 485.23,137.50 C485.64,138.05 485.87,198.29 485.74,271.36 L 485.50 404.22 L 478.00 407.19 C473.88,408.83 463.75,413.02 455.50,416.50 C447.25,419.99 436.17,424.66 430.88,426.89 C425.35,429.21 420.27,430.74 418.94,430.49 C417.75,430.26 409.03,426.67 399.14,422.33 C409.16,426.60 418.90,430.48 419.26,430.12 C419.68,429.71 420.02,356.09 420.01,266.52 ZM 81.00 267.00 C81.00,179.41 80.73,107.29 80.39,103.18 C80.71,103.06 80.92,103.00 81.01,103.00 C81.72,103.00 91.61,107.95 103.00,114.00 C114.39,120.05 123.99,125.00 124.35,125.00 C124.71,125.00 125.00,111.33 125.00,94.62 C125.00,71.49 125.30,64.02 126.25,63.30 C125.26,64.05 125.00,103.48 125.00,254.59 C125.00,442.32 125.00,444.90 126.95,445.97 C125.12,444.97 125.00,443.77 125.00,428.96 C125.00,420.18 124.63,413.00 124.17,413.00 C122.90,413.00 112.88,417.22 98.00,424.03 C90.57,427.43 83.57,430.43 82.44,430.69 C82.16,430.75 81.43,430.62 80.32,430.31 C80.70,422.85 81.00,352.26 81.00,267.00 ZM 14.85 402.12 C14.85,402.11 14.84,402.11 14.84,402.10 C14.42,400.97 14.16,333.97 14.11,267.84 C14.16,333.87 14.43,400.77 14.85,402.12 ZM 64.66 110.89 C58.19,114.24 50.95,118.05 45.50,121.00 C52.11,117.43 58.85,113.88 64.66,110.89 ZM 44.12 416.03 C37.12,413.11 30.70,410.44 27.06,408.93 C26.78,408.81 26.50,408.70 26.23,408.59 C29.85,410.07 36.67,412.91 44.12,416.03 Z" fill="rgb(106,158,204)" data-index="1" style="opacity: 1;"></path>

</g>
</svg>